<?xml version="1.0" ?><svg id="Layer_1" style="enable-background:new 0 0 30 30;" version="1.1" viewBox="0 0 30 30" xml:space="preserve" xmlns="http://www.w3.org/2000/svg" xmlns:xlink="http://www.w3.org/1999/xlink"><style type="text/css">
	.st0{fill:#545454;}
	.st1{fill:#545454;}
</style><g><path class="st0" d="M28,8.3349915c0,2.9500122-3.0499878,5.3500366-6.7999878,5.3500366   c-0.2399902,0-0.4700317-0.0100098-0.7000122-0.0300293l-2.3599854,1.9700317   C17.960022,15.7749939,17.7299805,15.855011,17.5,15.855011c-0.1400146,0-0.2799683-0.0300293-0.4199829-0.0900269   C16.7299805,15.605011,16.5,15.2550354,16.5,14.8650208l-0.0200195-2.6699829   c-1.3399658-1.0100098-2.0899658-2.3900146-2.0899658-3.8600464c0-2.9599609,3.0499878-5.3699951,6.8099976-5.3699951   C24.9500122,2.9649963,28,5.3750305,28,8.3349915z"/><path class="st1" d="M9.1900024,17.8349915C5.2299805,17.8349915,2,21.065033,2,25.0350037v1c0,0.5499878,0.4500122,1,1,1   h12.3900146c0.5499878,0,1-0.4500122,1-1v-1C16.3900146,21.065033,13.1599731,17.8349915,9.1900024,17.8349915z"/><path class="st1" d="M9.1900024,17.0050354c2.4199829,0,4.3900146-1.9300537,4.3900146-4.2900391   c0-2.3699951-1.9700317-4.2999878-4.3900146-4.2999878s-4.3800049,1.9299927-4.3800049,4.2999878   C4.8099976,15.0749817,6.7700195,17.0050354,9.1900024,17.0050354z"/></g></svg>