<?xml version="1.0" encoding="utf-8"?>
<!-- Generator: Adobe Illustrator 21.0.0, SVG Export Plug-In . SVG Version: 6.00 Build 0)  -->
<svg version="1.1" id="Layer_1" xmlns="http://www.w3.org/2000/svg" xmlns:xlink="http://www.w3.org/1999/xlink" x="0px" y="0px"
	 viewBox="0 0 85 85" style="enable-background:new 0 0 85 85;" xml:space="preserve">
<style type="text/css">
	.st0{fill:#FFA500;}
	.st1{fill:#393939;}
</style>
<g>
	<g>
		<rect x="30.8" width="7.8" height="45"/>
		<rect x="46.4" class="st0" width="7.8" height="45"/>
		<rect x="7.8" y="4" width="7.8" height="36.7"/>
		<rect x="69.4" y="4" class="st0" width="7.8" height="36.7"/>
		<rect x="19.3" y="34.9" width="7.8" height="10.1"/>
		<rect x="57.9" class="st0" width="7.8" height="10.1"/>
		<rect x="57.9" y="25.2" class="st0" width="7.8" height="4.9"/>
	</g>
	<g>
		<polygon class="st1" points="47.5,85 45.8,85 46.4,82.3 46.4,69 48.1,69 48.1,82.4 		"/>
		<polygon class="st1" points="37.9,85 36.1,85 37.4,81.9 40.1,69 41.8,69 38.9,82.4 		"/>
		<polygon class="st1" points="53.5,76.3 55.3,76.3 47.1,59 45.2,59 		"/>
		<polygon class="st1" points="30.9,75.7 29.1,75.7 35,63.2 36.8,63.2 		"/>
		<polygon class="st1" points="36.2,60.7 37,59 47.1,59 47.9,60.7 		"/>
		<polygon class="st1" points="35.8,70.6 36.6,69 48.1,69 48.1,70.6 		"/>
	</g>
	<g>
		<polygon class="st1" points="6.6,72 4.7,72 9.1,62.3 9.1,59 10.8,59 10.8,62.6 		"/>
		<rect x="7.4" y="72.2" class="st1" width="1.7" height="12.8"/>
		<rect x="19.6" y="59" class="st1" width="1.7" height="5"/>
		<rect x="18.8" y="65" class="st1" width="1.7" height="4.8"/>
		<rect x="27.5" y="68.2" class="st1" width="1.7" height="4.2"/>
		<rect x="26.7" y="62.6" class="st1" width="1.7" height="7.2"/>
		<polyline class="st1" points="20.8,81.4 25.8,85 28.6,85 22.2,80.3 		"/>
		<polygon class="st1" points="16.4,85 13.6,85 23.8,77.3 26.6,77.3 		"/>
		<rect x="12.5" y="59" class="st1" width="15.9" height="1.7"/>
		<rect x="16.3" y="74" class="st1" width="14.6" height="1.7"/>
		<polygon class="st1" points="28.4,62.3 28.4,64 12.5,64 12.5,62.3 		"/>
		<rect x="10.8" y="68.2" class="st1" width="18.4" height="1.7"/>
		<rect x="11.8" y="72.1" class="st0" width="2.5" height="5.4"/>
	</g>
	<g>
		<rect x="75.9" y="68.9" class="st1" width="1.7" height="16.1"/>
		<rect x="59.7" y="59" class="st1" width="1.7" height="26"/>
		<polygon class="st1" points="69.5,85 67.8,85 68.9,82.4 68.9,59 70.6,59 70.6,82.4 		"/>
		<polygon class="st1" points="55.9,76.3 54.1,76.3 57.1,70 58.9,70 		"/>
		<rect x="68.9" y="59" class="st1" width="10.5" height="1.7"/>
		<rect x="69" y="66.1" class="st1" width="11.3" height="1.7"/>
		<rect x="62.2" y="64.8" class="st1" width="4.6" height="1.7"/>
		<polygon class="st1" points="55.1,66.5 54.3,64.8 61.3,64.8 61.3,66.5 		"/>
		<polygon class="st1" points="65.2,74.4 67.3,74.4 64.2,70 62.2,70 		"/>
	</g>
</g>
</svg>
