<?xml version="1.0" encoding="utf-8"?>
<!-- Generator: Adobe Illustrator 21.0.0, SVG Export Plug-In . SVG Version: 6.00 Build 0)  -->
<svg version="1.1" id="Layer_1" xmlns="http://www.w3.org/2000/svg" xmlns:xlink="http://www.w3.org/1999/xlink" x="0px" y="0px"
	 viewBox="0 0 250 250" style="enable-background:new 0 0 250 250;" xml:space="preserve">
<style type="text/css">
	.st0{display:none;fill:#B5B5B5;enable-background:new    ;}
	.st1{font-family:'NotoSansCJKtc-Regular-B5pc-H';}
	.st2{font-size:72px;}
	.st3{letter-spacing:10;}
	.st4{fill:#FFFFFF;}
</style>
<text transform="matrix(1 0 0 1 2.6003 -12.4408)" class="st0 st1 st2 st3">優分析</text>
<g>
	<path class="st4" d="M169.7,128.5c0,3.6-2.8,5.9-5.9,5.9l-20.3,0c0,0-12.7,30.1-15.5,36.7c-1.5,3.5-5.1,4.5-8.3,3.1
		c-2.8-1.3-3.7-4.9-2.4-8c9.8-23.2,20.3-47.9,30-71.1c1.3-3,3.4-7.5,4.5-10.6c1.1-3.1,3.5-5.7,7.4-5.7c4.2,0,6.3,2.1,7.9,5.9
		c6.7,16.1,13.5,33.2,20.3,49.3c7.4,17.4,15.7,36.1,23.1,53.6c4-5.4,7.8-12,8.7-13.7c4.9-9.6,7.9-18.9,9.4-27.3
		c2.9-16.2,2.7-32.3-1.7-49c-4.3-16.3-14.1-33.6-26.2-45.9c-8.5-8.7-18.2-15.9-28.9-21.3c-10-5-20.8-8.1-32.1-9.8
		c-15.4-2.3-32.4-0.8-46.4,3.7c-7,2.2-16.8,6.7-20.1,8.8c-3.6,2.3-7.7,1.4-9.2-1.9c-1.5-3.2-0.2-6.4,2.7-8
		c9.7-5.4,20.2-9.7,31.4-12.3c12.8-3,26.3-3.8,39.1-2.4c16.4,1.7,32.8,7.5,46.1,14.9c11.4,6.4,23.5,16.5,32.6,27.7
		c5.9,7.2,10.5,14.6,15,23.9c4.4,9,8.1,20,9.5,30.1c2.8,16.5,2,34.6-1.6,49.6c-2.7,11.2-6.8,21-12.9,30.9
		c-5.7,9.3-14.2,18.8-15.9,19.8c-2.6,1.5-4.4,0-5.5-1.6c-1.2-1.8-33.6-79.6-33.6-79.6l-11.6-27.4c0,0-8.6,20.5-10.9,25.6l15.3,0
		C166.9,122.7,169.7,124.6,169.7,128.5z"/>
	<path class="st4" d="M45.8,55.4C32.2,71,23.6,90,20.7,109c-4.5,30.3,4.2,59.6,21.6,81.5c6.9,8.7,15.3,16.6,25.2,23
		c11,7.1,24.7,12.8,37.7,15.2c18.4,3.2,36.1,2.1,52.7-3.5c9.7-3.3,19.1-7.6,28.3-14.2c1.6-1.1,3.8-3,5.6-4.2
		c2.5-1.6,6.1-0.7,7.9,1.7c1.1,1.5,1.6,4.7-0.1,6.7c-1.2,1.5-3.1,2.6-4.6,3.8c-8.4,6.3-18.7,12-29.1,15.9c-14.5,5.4-30.1,7.7-46,7.2
		c-17.2-0.5-35.4-6.1-48.4-12.8c-20-10.4-33.4-24.4-40.8-34.5c-6-8.2-12.4-19.5-16.3-31c-5.2-15.1-7.2-30.6-6.4-45.6
		c0.6-10.6,2.7-20.9,5.9-30.8c3.9-12.1,10.1-23.1,17.6-33.3c4.5-6,11.1-12.9,19.2-19.9c0.5-0.4,1.5-1.3,2.7-2.3
		c1.7-1.4,4.3-0.2,4.3,2c0,1.4,0,2.6,0,3.3c0.1,28.4,0,56.8,0,85.2c0,7.1,1,10.6,3.6,15.6c3.4,6.6,9.6,11.8,16.8,14
		c9.6,2.9,19.3,1.1,26.7-4.3c7-5.1,11.7-13.2,12-23c0-13.6,0-33.2,0-47.1c0-4.7,3.8-6.1,6-6.1c2.5,0,5.8,2.1,5.8,6.1
		c0,8,0.1,34.5,0,46.9c0,8.9-3.3,17.2-8.1,23.9c-6.4,8.8-16.3,14.8-27.3,16.3c-19.7,2.7-39.3-9.1-45.1-28c-1.5-5-2.1-10.3-2.1-15.5
		C45.9,100.6,45.8,78.2,45.8,55.4z"/>
</g>
</svg>
