<?xml version="1.0" encoding="utf-8"?>
<!-- Generator: Adobe Illustrator 21.0.0, SVG Export Plug-In . SVG Version: 6.00 Build 0)  -->
<svg version="1.1" id="Layer_1" xmlns="http://www.w3.org/2000/svg" xmlns:xlink="http://www.w3.org/1999/xlink" x="0px" y="0px"
	 viewBox="0 0 84.5 18" style="enable-background:new 0 0 84.5 18;" xml:space="preserve">
<style type="text/css">
	.st0{fill:#FFFFFF;}
</style>
<g>
	<rect x="8.5" y="0.6" class="st0" width="2.9" height="16.6"/>
	<rect x="14.2" y="0.6" class="st0" width="2.9" height="16.6"/>
	<rect y="2.1" class="st0" width="2.9" height="13.5"/>
	<rect x="22.7" y="2.1" class="st0" width="2.9" height="13.5"/>
	<rect x="4.2" y="13.5" class="st0" width="2.9" height="3.7"/>
	<rect x="18.5" y="0.6" class="st0" width="2.9" height="3.7"/>
	<rect x="18.5" y="9.9" class="st0" width="2.9" height="1.8"/>
</g>
<g>
	<g>
		<polygon class="st0" points="61.8,17.8 60.7,17.8 61.1,16 61.1,6.8 62.2,6.8 62.2,16.1 		"/>
		<polygon class="st0" points="55.2,17.8 54,17.8 54.9,15.7 56.7,6.8 57.9,6.8 55.9,16.1 		"/>
		<polygon class="st0" points="65.9,11.9 67.2,11.9 61.5,0 60.2,0 		"/>
		<polygon class="st0" points="50.4,11.4 49.2,11.4 53.2,2.9 54.5,2.9 		"/>
		<polygon class="st0" points="54.1,1.1 54.6,0 61.5,0 62,1.1 		"/>
		<polygon class="st0" points="53.8,8 54.3,6.8 62.2,6.8 62.2,8 		"/>
	</g>
	<g>
		<polygon class="st0" points="33.7,8.9 32.5,8.9 35.5,2.2 35.5,0 36.6,0 36.6,2.5 		"/>
		<rect x="34.3" y="9.1" class="st0" width="1.1" height="8.7"/>
		<rect x="42.7" class="st0" width="1.1" height="3.4"/>
		<rect x="42.1" y="4.1" class="st0" width="1.1" height="3.3"/>
		<rect x="48.2" y="6.3" class="st0" width="1.1" height="2.9"/>
		<rect x="47.7" y="2.5" class="st0" width="1.1" height="4.9"/>
		<polyline class="st0" points="43.5,15.4 46.9,17.8 48.9,17.8 44.5,14.6 		"/>
		<polygon class="st0" points="40.4,17.8 38.6,17.8 45.6,12.6 47.5,12.6 		"/>
		<rect x="37.7" class="st0" width="11" height="1.1"/>
		<rect x="40.4" y="10.3" class="st0" width="10" height="1.1"/>
		<rect x="37.7" y="2.3" class="st0" width="11" height="1.1"/>
		<rect x="36.6" y="6.3" class="st0" width="12.7" height="1.1"/>
		<rect x="37.3" y="9" class="st0" width="1.7" height="3.7"/>
	</g>
	<g>
		<path class="st0" d="M89,1.2c1.1,0,1.7,0.8,1.7,1.6S90.1,4.3,89,4.3h-1.1v1.5h-0.7V1.2H89z M89,3.6c0.6,0,0.9-0.4,0.9-0.9
			c0-0.4-0.3-0.9-0.9-0.9h-1.1v1.8H89z"/>
		<path class="st0" d="M92,3.5h0.9c0.6,0,0.9-0.4,0.9-0.8s-0.3-0.8-0.9-0.8h-1.1v4H91V1.2h1.9c1.1,0,1.7,0.7,1.7,1.5
			c0,0.7-0.4,1.3-1.3,1.4l1.6,1.7h-1l-1.9-2C92,3.8,92,3.5,92,3.5z"/>
		<path class="st0" d="M95.5,1.8c0.5-0.4,1.1-0.7,1.8-0.7c0.7,0,1.4,0.3,1.9,0.7s0.8,1,0.8,1.7s-0.3,1.2-0.8,1.7
			c-0.5,0.4-1.1,0.7-1.9,0.7c-0.7,0-1.4-0.3-1.8-0.7c-0.5-0.4-0.8-1-0.8-1.7C94.8,2.9,95.1,2.3,95.5,1.8z M98.7,2.3
			c-0.3-0.3-0.8-0.5-1.3-0.5s-1,0.2-1.3,0.5S95.5,3,95.5,3.5s0.2,0.9,0.6,1.2c0.3,0.3,0.8,0.5,1.3,0.5s1-0.2,1.3-0.5
			C99,4.4,99.3,4,99.3,3.5S99,2.6,98.7,2.3z"/>
	</g>
	<g>
		<rect x="81.3" y="6.8" class="st0" width="1.1" height="11"/>
		<rect x="70.2" class="st0" width="1.1" height="17.8"/>
		<polygon class="st0" points="76.9,17.8 75.7,17.8 76.5,16.1 76.5,0 77.7,0 77.7,16.1 		"/>
		<polygon class="st0" points="67.6,11.9 66.3,11.9 68.4,7.5 69.6,7.5 		"/>
		<polygon class="st0" points="83.7,0 83.7,1.1 76.5,1.1 76.5,0 		"/>
		<rect x="76.5" y="4.8" class="st0" width="7.8" height="1.1"/>
		<rect x="71.9" y="4" class="st0" width="3.2" height="1.1"/>
		<polygon class="st0" points="67,5.1 66.5,4 71.3,4 71.3,5.1 		"/>
		<polygon class="st0" points="74,10.6 75.4,10.6 73.3,7.5 71.9,7.5 		"/>
	</g>
</g>
</svg>
