<?xml version="1.0" encoding="utf-8"?>
<!-- Generator: Adobe Illustrator 21.0.0, SVG Export Plug-In . SVG Version: 6.00 Build 0)  -->
<svg version="1.1" id="Layer_1" xmlns="http://www.w3.org/2000/svg" xmlns:xlink="http://www.w3.org/1999/xlink" x="0px" y="0px"
	 viewBox="0 0 800 280" style="enable-background:new 0 0 800 280;" xml:space="preserve">
<style type="text/css">
	.st0{fill:#FFFFFF;}
</style>
<g>
	<g>
		<path class="st0" d="M49.7,54.8c-12,13-20.2,26.8-25.8,42.2C-3,171.3,44.6,252.2,122.5,264.2c35,5.4,67.1-2.7,95.7-24
			c0.8-0.6,1.6-1.2,2.4-1.8c3.2-2.3,6.3-2.4,8.8,0.9c2.5,3.3,1.2,6.2-1.8,8.6c-10.3,8.1-21.4,14.7-33.5,19.5
			C110.8,301,18,247.7,6.1,158.9c-6.5-48.3,9.3-89.2,45.2-122.2c3-2.8,6.2-5.4,10.2-8.8v109.7c0,17.5,10.4,31.5,26.3,35.8
			c23.3,6.3,45.4-10.8,45.6-35.4V84.5c0-4,1.9-6.3,6-6.3c3.9,0,5.5,2.6,5.5,6.3V132c0,5.8,0.2,11.6-1.1,17.4
			C138.4,173,116,189,92.1,186.3c-24.1-2.7-42.4-22.9-42.5-47.1L49.7,54.8z"/>
		<path class="st0" d="M239,236.6c-18.6-44.1-37.2-87.9-56.2-132.9c-5,11.8-9.6,22.6-14.5,34.2h18.6c4,0.1,7,1.6,6.8,6.1
			c-0.2,4.2-3,5.5-6.9,5.5h-23.3l-17.7,41.8c-2.4,5.6-5,7.3-8.7,5.9c-3.8-1.5-4.4-4.9-2-10.7l11.5-27.1c9.3-22,18.7-44.1,27.9-66.2
			c1.6-3.8,3.5-6.8,8.1-6.9c4.9-0.1,6.9,3.1,8.6,7c16.4,38.9,32.9,77.8,49.3,116.7c0.7,1.7,1.4,3.3,2.4,5.6
			c10-12.7,16.7-26.4,20.7-41.5C283,101.1,237,28.8,162.4,15.9c-27.7-4.8-54.4-0.2-79.4,13c-1,0.5-2,1.1-3.1,1.7
			c-3.4,1.8-6.6,1.7-8.6-1.9c-1.9-3.5-0.5-6.4,2.9-8.3C85,14.2,96.4,9.6,108.4,6.6c79.5-19.9,158.9,33.4,170,114.5
			c5.4,39.6-3.9,75.7-30.1,106.7c-2.3,2.7-4.8,5-7.3,7.5C240.4,235.8,239.8,236.1,239,236.6z"/>
		<path class="st0" d="M168.4,138H187c4,0.1,7,1.6,6.8,6.1"/>
	</g>
	<g>
		<g>
			<path class="st0" d="M366,48.6c1.4,0,2.6,0.4,3.6,1.2c1.1,1,1.7,2.2,1.7,3.7c0,0.6-0.2,1.5-0.5,2.5c-2.4,11.7-5.4,21.9-9,30.7
				v80.1c0,3.3-1.5,4.9-4.6,4.9c-3.2,0-4.7-1.6-4.7-4.9v-60.1c-1.1,1.8-2.2,3.6-3.3,5.3c-1.3,1.5-2.3,2.2-3,2.2
				c-3.5,0-5.3-1.4-5.3-4.2c0-1.2,0.4-2.3,1.1-3.3c4.3-7,8.1-14.8,11.5-23.3c3.7-9,6.7-19.4,9.1-31.4C362.9,49.7,364,48.6,366,48.6z
				 M455.7,52.4c2.5,0,3.8,1.2,3.8,3.6c0,2.8-1.3,4.2-3.8,4.2h-37.3l-3.2,6.3h27.9c5.2,0,7.8,2.3,7.8,6.9v28.5h4.2
				c2.8,0,4.9,1,6.2,2.9c1.1,1.4,1.7,3.6,1.7,6.6c0,1.9-0.4,4-1.1,6.3c-0.5,2.2-1.9,3.3-4.1,3.3c-2.5,0-3.7-1.3-3.7-3.8
				c0.6-2.8,0.9-4.6,0.9-5.3c0-2.4-0.8-3.6-2.5-3.6h-48.9c0.3,0.7,0.4,1.4,0.4,2.1v11.5c0,1.1,1.2,1.6,3.7,1.6h15.4
				c6.2,0,9.2-2.5,9.2-7.4c0.4-2.1,1.6-3.2,3.8-3.2c2.7,0,4.1,1.4,4.1,4.2c0,4.4-1.2,7.6-3.7,9.6c-3,2.5-6.8,3.7-11.3,3.7H410
				c-1,2.2-2.1,4.1-3.4,5.8h38c4.2,0,6.3,1.8,6.3,5.3c0,1.9-2.2,4.5-6.6,7.8c-3.4,2.7-7.4,5.2-12,7.5c7,2.1,16.9,3.8,29.7,5.1
				c1,0,1.9,0.4,2.8,1.1c1,0.7,1.5,1.8,1.5,3.3s-0.5,2.7-1.5,3.7c-0.9,0.5-2.2,0.9-3.8,1.1c-6.9,0-14.8-1.2-23.5-3.7
				c-6.2-1.6-11.7-3.4-16.4-5.5c-7.9,3.1-17.2,5.5-27.8,7.4c-7.6,1.6-13.8,2.4-18.7,2.4c-3.2,0-4.7-1.8-4.7-5.3c0-2.6,1.4-4,4.2-4.4
				c8-0.4,14-0.7,17.9-1.2c7.1-1.1,13.5-2.4,19.3-4.1c-5-3-10.1-6.7-15.2-11.2l-0.3,0.1c-6.2,3.3-12.3,5.8-18.2,7.5
				c-1.2,0.4-2.2,0.5-3,0.5c-1.2,0-2.3-0.5-3.2-1.6c-0.7-1-1.1-2-1.1-3.2c0-2.4,1.1-3.8,3.2-4.4c5.9-1.4,11.6-3.4,17.1-6.1
				c3.2-1.7,5.9-3.6,8.2-5.9c0.9-0.9,1.6-1.8,2.2-2.6c-3.7-0.9-5.5-3-5.5-6.5v-13.1c0-0.9,0.2-1.6,0.5-2.1h-16.8c-2.2,0-3.3,1-3.3,3
				v6.3c0,2.6-1.2,3.8-3.7,3.8c-2.4,0-3.6-1.3-3.6-3.8v-8.8c0-4.7,2.3-7,6.8-7h4.2V73.4c0-4.6,2.5-6.9,7.4-6.9h17.6l3-6.3h-30.8
				c-2.4,0-3.6-1.4-3.6-4.2c0-2.4,1.2-3.6,3.6-3.6H455.7z M387.6,113.6c3.3,0,4.9,1.4,4.9,4.1c0,1.7-0.7,3.4-2.1,5.3
				c-2.1,3.8-4,6.8-5.8,9.1c-1.1,0.6-2.2,0.9-3.2,0.9c-2.9,0-4.4-1.2-4.4-3.7c0-1.1,0.4-2.1,1.1-3c2.5-3.3,4.6-6.8,6.5-10.6
				C385.3,114.3,386.3,113.6,387.6,113.6z M388.7,79.2H442v-1.6c0-2.4-1.1-3.6-3.3-3.6h-47.2c-1.8,0-2.8,1.2-2.8,3.6V79.2z
				 M388.7,90.9H442v-5.3h-53.3V90.9z M388.7,101.9H442v-4.6h-53.3V101.9z M407,144.2c5.1,3.5,10.2,6.5,15.3,8.8
				c3.3-1.3,6.3-2.7,9.2-4.2c3.9-1.9,5.8-3.2,5.8-3.7c0-0.6-0.5-0.9-1.6-0.9L407,144.2L407,144.2z M417.2,109.4
				c0.6,0,1.4,0.4,2.2,1.1c1.6,1.6,3.2,3.5,4.7,5.7c0.4,0.8,0.5,1.5,0.5,2.1c0,2.2-1.2,3.3-3.7,3.3c-0.5,0-1.1-0.2-1.6-0.5
				c-1.8-2.1-3.5-4-5.3-5.8c-0.7-1.1-1.1-1.8-1.1-2.2C413.1,110.6,414.4,109.4,417.2,109.4z M446.8,112.9c0.9,0,1.7,0.6,2.5,1.7
				c2.8,3.4,5.1,7.3,6.9,11.6c0.4,1.1,0.5,2.1,0.5,3c0,2.5-1.8,3.7-5.3,3.7c-1.4,0-2.4-1.1-3-3.2c-1.6-4.8-3.2-8.7-4.9-11.6
				c-0.3-0.9-0.4-1.6-0.4-2.1C443.1,114,444.4,112.9,446.8,112.9z"/>
			<path class="st0" d="M537.2,62.9c1.1,0,2.2,0.4,3.2,1.1c1.1,0.7,1.6,1.7,1.6,3c0,0.9-0.2,2-0.5,3.3c-2.1,7.2-4.6,13.3-7.5,18.3
				c-2.9,5.6-6.4,10.7-10.4,15.3c-3.3,4-7.2,7.6-11.7,10.7c-1,0.7-2,1.1-3,1.1c-1.3,0-2.5-0.5-3.4-1.6s-1.3-2.4-1.3-3.7
				c0-1.5,0.5-2.8,1.5-3.8c4.1-2.9,7.7-6.1,10.7-9.6c3.7-4.4,6.9-9.1,9.6-14c2.5-4.7,4.8-10.4,6.7-17C533,64,534.6,62.9,537.2,62.9z
				 M534.9,99.2h63.4c6.2,0,9.4,3.7,9.4,11.2c0,13.4-0.6,25.6-1.7,36.7c-1.1,9.8-3.5,16.2-7.1,19.3c-3.9,3.2-9.5,4.7-16.9,4.7
				c-6.4,0-13.5-1.6-21.2-4.7c-2.5-1.2-3.7-2.9-3.7-4.9c0-3.9,1.8-5.8,5.3-5.8c8.3,3.6,14.6,5.4,19.1,5.4c5,0,8.6-1.3,10.7-4
				c2.2-2.6,3.6-7.4,4.4-14.5c0.9-7.9,1.3-17.4,1.3-28.5c0-3.5-1.6-5.3-4.7-5.3h-28c-1.3,10.6-3.4,19.5-6.3,26.8
				c-3.6,8.8-8.9,15.8-15.8,21.1c-6.8,5.4-16.3,9.9-28.5,13.6l-1.6,0.3c-3.5,0-5.3-1.9-5.3-5.8c0-2,1-3.4,3-4.2
				c11.2-3.1,20-7.2,26.5-12.3c5.1-4.1,9.2-9.7,12.3-16.8c2.5-5.5,4.4-13.1,5.4-22.7H535c-3.1,0-4.6-1.6-4.6-4.7
				C530.3,100.8,531.8,99.2,534.9,99.2z M549.7,51.9h36.5c5.3,0,9,2.6,11.1,7.9c3,9.5,6.5,17.2,10.4,23.2c2.6,4.1,5.9,8.3,9.8,12.4
				c2.3,2.4,5.8,5.5,10.4,9.2c1,1.2,1.5,2.6,1.5,4.2c-0.2,3-1.9,4.6-5.3,4.7c-1.1,0-2.3-0.6-3.6-1.7c-5-3.7-9-7.2-11.9-10.4
				c-4.4-4.6-8.4-9.8-12.1-15.8c-3.5-6.2-6.4-13.2-8.7-21.1c-0.6-2.2-2.1-3.3-4.4-3.3h-33.8c-3.2,0-4.7-1.6-4.7-4.7
				C544.9,53.4,546.5,51.9,549.7,51.9z"/>
			<path class="st0" d="M712.8,74c2.8,0,4.2,1.4,4.2,4.2c0,3.2-1.4,4.8-4.2,4.8h-13.6v10.2l16,24.3c1,1.6,1.5,3,1.5,4.2
				c0,3.5-1.8,5.3-5.3,5.3c-1.8,0-3.1-1-4-2.9l-8.2-15.6v58.4c0,3.3-1.6,4.9-4.7,4.9c-3.3,0-4.9-1.6-4.9-4.9v-60.8
				c0,0.1,0,0.2-0.1,0.4c-2.8,8.5-5.4,15.2-7.7,20c-2.8,6.8-5.3,11.6-7.5,14.5c-1.1,2.2-2.4,3.3-4.1,3.3c-3.2,0-4.7-1.6-4.7-4.9
				c0-1.1,0.3-2.4,0.9-3.7c7.3-12.8,12.4-23.5,15.4-31.9c2.3-6,4.4-12.9,6.2-20.8h-15.3c-2.8,0-4.2-1.6-4.2-4.8
				c0-2.8,1.4-4.2,4.2-4.2h16.9V54.4c0-3.2,1.6-4.7,4.9-4.7c3.2,0,4.7,1.6,4.7,4.7V74H712.8z M779.3,50.2c2.7,0.2,4.2,1.9,4.4,5.3
				c-0.3,2.5-2,4-5.3,4.7c-19.1,3.5-33.2,5.3-42.3,5.3c-2.4,0-3.6,1.5-3.6,4.4v19.9h52.6c3.3,0,4.9,1.6,4.9,4.7
				c0,3.2-1.6,4.7-4.9,4.7h-14.8v67.1c0,3.2-1.7,4.7-5.1,4.7c-3.2,0-4.7-1.6-4.7-4.7V99.2h-28v9.1c0,11-0.8,20.6-2.5,28.8
				c-1.8,10.1-5,20.4-9.6,30.7c-1.2,1.8-2.8,2.8-4.7,2.8c-3.3-0.3-5.1-2-5.3-5.3c0-0.7,0.4-1.6,1.1-2.8c4.8-10.6,8-20,9.5-28.2
				c1.3-7.8,2-16.5,2-26V63.5c0-5,3-7.5,9.1-7.5c11.4,0,25.4-1.6,41.8-4.9C776.9,50.5,778.7,50.2,779.3,50.2z"/>
		</g>
	</g>
	<g>
		<path class="st0" d="M368,243.6c0,2.7-0.6,4.9-1.9,6.8c-1.3,1.9-3,3.2-5,4.1c-2,0.9-4.3,1.3-6.9,1.3c-2.4,0-4.6-0.4-6.6-1.2
			s-3.6-2.2-4.9-4.1c-1.2-1.9-1.9-4.2-1.9-6.9v-22.3c0-0.6,0.2-1.1,0.6-1.4c0.4-0.4,0.9-0.6,1.5-0.6c0.4,0,0.7,0.1,0.9,0.2l0.4,0.3
			c0.3,0.3,0.5,0.8,0.6,1.5v22c0,1.9,0.5,3.5,1.4,4.9c0.8,1.4,2,2.4,3.6,3.1c1.4,0.7,3,1.1,4.8,1.1s3.4-0.3,4.9-0.9
			c0.7-0.4,1.4-0.8,1.9-1.3s1-1.1,1.5-1.9c0.4-0.7,0.7-1.5,0.8-2.3c0.2-0.8,0.3-1.7,0.3-2.5v-22c0-0.6,0.2-1.1,0.6-1.4
			c0.4-0.4,0.9-0.6,1.5-0.6c0.5,0,0.9,0.2,1.3,0.5s0.6,0.8,0.7,1.5L368,243.6L368,243.6z"/>
		<path class="st0" d="M434.1,254.3c0,0.4-0.1,0.8-0.4,1.1c-0.2,0.2-0.6,0.3-1.1,0.4c-0.3,0-0.7-0.2-1.2-0.5s-0.8-0.8-1-1.5
			l-2.5-5.8H411l-2.3,5.8c-0.2,0.6-0.6,1.1-1.1,1.5s-1,0.5-1.4,0.5c-0.3,0-0.6-0.1-0.8-0.4c-0.3-0.2-0.4-0.6-0.4-1.1l0.2-1.2
			l11.4-31.8c0.2-0.6,0.6-1.1,1.1-1.5s1-0.6,1.6-0.6c0.5,0,1.1,0.2,1.7,0.5c0.6,0.4,1,0.9,1.2,1.6l11.8,31.8l0.1,0.6L434.1,254.3z
			 M426.5,244.1l-7.1-20.1l-7.1,20.1H426.5z"/>
		<path class="st0" d="M499,253.4c0,0.8-0.1,1.4-0.4,1.8c-0.3,0.4-0.6,0.7-1.1,0.7s-0.9-0.2-1.2-0.5c-0.5-0.2-0.8-0.7-1.1-1.2
			l-19-27.8v27.4c0,0.5-0.1,1-0.4,1.2c-0.3,0.3-0.7,0.5-1.3,0.6c-0.5,0-0.9-0.2-1.2-0.5c-0.3-0.3-0.5-0.7-0.6-1.3v-32.6
			c0-0.5,0.1-1,0.4-1.4s0.7-0.6,1.1-0.6s0.8,0.2,1.4,0.5l0.7,0.6l0.5,0.6l18.8,27.8v-27.8c0-0.5,0.2-0.9,0.6-1.2
			c0.2-0.2,0.6-0.4,1.2-0.4c0.4,0,0.8,0.1,1.1,0.4c0.3,0.2,0.5,0.7,0.6,1.3v32.4H499z"/>
		<path class="st0" d="M565.9,254.3c0,0.4-0.1,0.8-0.4,1.1c-0.2,0.2-0.6,0.3-1.1,0.4c-0.3,0-0.7-0.2-1.2-0.5s-0.8-0.8-1-1.5
			l-2.5-5.8h-16.9l-2.3,5.8c-0.2,0.6-0.6,1.1-1.1,1.5s-1,0.5-1.4,0.5c-0.3,0-0.6-0.1-0.8-0.4c-0.3-0.2-0.4-0.6-0.4-1.1l0.2-1.2
			l11.4-31.8c0.2-0.6,0.6-1.1,1.1-1.5s1-0.6,1.6-0.6c0.5,0,1.1,0.2,1.7,0.5c0.6,0.4,1,0.9,1.2,1.6l11.8,31.8l0.1,0.6L565.9,254.3z
			 M558.2,244.1l-7.1-20.1l-7.1,20.1H558.2z"/>
		<path class="st0" d="M619.1,253.2c0,0.4-0.1,0.8-0.4,1.3c-0.5,0.4-0.9,0.6-1.4,0.6h-10.2c-1.5,0-2.3-0.9-2.3-2.8v-31
			c0-0.6,0.2-1.1,0.6-1.3s0.8-0.4,1.2-0.4c0.5,0,0.9,0.1,1.2,0.4c0.3,0.3,0.5,0.7,0.5,1.3v30.2h9c0.6,0,1,0.2,1.3,0.5
			C619,252.4,619.1,252.8,619.1,253.2z"/>
		<path class="st0" d="M673.6,220.7v0.7l-0.3,0.8l-9.8,16.4v14.9c0,0.5-0.2,1.1-0.6,1.6c-0.4,0.4-0.8,0.6-1.2,0.6
			c-0.5,0-0.9-0.2-1.3-0.7c-0.4-0.4-0.6-0.9-0.6-1.5v-14.9l-9.3-16.4l-0.3-0.6L650,221c0-0.3,0.1-0.6,0.4-1.1
			c0.3-0.4,0.7-0.6,1.1-0.6l0.9,0.2c0.3,0.2,0.6,0.4,0.8,0.7l8.6,14.6l8.6-14.5c0.5-0.7,1.1-1,1.7-1c0.5,0,0.8,0.2,1,0.5
			C673.4,220.1,673.6,220.4,673.6,220.7z"/>
		<path class="st0" d="M734.4,253.2c0,0.5-0.1,1-0.4,1.3c-0.3,0.3-0.7,0.5-1.3,0.6h-21.1c-0.3,0-0.6,0-0.7,0l-0.6-0.4
			c-0.2-0.4-0.4-0.8-0.4-1.3c0-0.8,0.2-1.5,0.5-2.2l18.2-27.8h-16.3c-0.6,0-1-0.2-1.3-0.5c-0.3-0.2-0.5-0.6-0.6-1.2
			c0-0.4,0.2-0.8,0.5-1.2s0.8-0.6,1.4-0.6h19.1c0.8,0,1.4,0.1,1.7,0.4c0.4,0.3,0.6,0.7,0.7,1.3c0,0.5-0.3,1.2-0.7,2.1l-18.5,27.8h18
			c0.4,0,0.7,0.1,0.9,0.2l0.6,0.7C734.3,252.4,734.3,252.7,734.4,253.2z"/>
		<path class="st0" d="M790,253.2c0,0.4-0.2,0.8-0.6,1.2c-0.4,0.4-0.9,0.6-1.4,0.6h-12.5c-0.8,0-1.3-0.2-1.6-0.5s-0.4-1-0.4-1.9V222
			c0-0.9,0.1-1.5,0.4-1.8c0.2-0.3,0.8-0.5,1.6-0.5h12.2c0.5,0,0.9,0.1,1.2,0.4c0.3,0.3,0.4,0.7,0.5,1.3c0,0.5-0.1,0.8-0.4,1.1
			c-0.3,0.3-0.7,0.5-1.3,0.6H777V235h10.2c0.6,0,1,0.2,1.3,0.6c0.3,0.4,0.4,0.8,0.4,1.2c0,0.5-0.1,0.9-0.4,1.2
			c-0.3,0.3-0.7,0.5-1.3,0.5H777v12.9h11c0.5,0,0.8,0.1,1.2,0.2c0.3,0.1,0.5,0.3,0.6,0.5C789.8,252.4,789.9,252.7,790,253.2z"/>
	</g>
</g>
</svg>
