<?xml version="1.0" encoding="utf-8"?>
<!-- Generator: Adobe Illustrator 21.0.0, SVG Export Plug-In . SVG Version: 6.00 Build 0)  -->
<svg version="1.1" id="Layer_1" xmlns="http://www.w3.org/2000/svg" xmlns:xlink="http://www.w3.org/1999/xlink" x="0px" y="0px"
	 viewBox="0 0 250 230" style="enable-background:new 0 0 250 230;" xml:space="preserve">
<style type="text/css">
	.st0{display:none;fill:#B5B5B5;enable-background:new    ;}
	.st1{font-family:'NotoSansCJKtc-Regular-B5pc-H';}
	.st2{font-size:72px;}
	.st3{letter-spacing:9;}
	.st4{fill:#FFA500;}
	.st5{fill:#B5B5B5;}
	.st6{fill:#545454;}
</style>
<text transform="matrix(1 0 0 1 2.6003 -22.4408)" class="st0 st1 st2 st3">優分析</text>
<g>
	<g>
		<g>
			<g>
				<rect x="85.4" y="6" width="26.4" height="151.8"/>
				<rect x="138.1" y="6" class="st4" width="26.4" height="151.8"/>
				<rect x="7.8" y="19.6" width="26.4" height="123.8"/>
				<rect x="215.9" y="19.6" class="st4" width="26.4" height="128.2"/>
				<rect x="46.6" y="123.7" width="26.4" height="34.1"/>
				<rect x="176.9" y="6" class="st4" width="26.4" height="34.1"/>
				<rect x="176.9" y="91.2" class="st4" width="26.4" height="16.4"/>
			</g>
		</g>
	</g>
	<g>
		<path class="st5" d="M20.6,204.6c2.3,2,5.1,5,6.3,7l-1.5,1.1c-0.4-0.6-0.9-1.3-1.5-2.1c-13.7,0.8-15.1,0.8-16,1.2
			c-0.1-0.4-0.4-1.3-0.6-1.8c0.5-0.1,1.2-0.6,1.9-1.4c0.9-0.8,3.6-3.8,5.5-6.8l1.8,0.8c-1.9,2.6-4,5.1-6.1,7.1l12.2-0.6
			c-1.1-1.2-2.3-2.5-3.5-3.5L20.6,204.6z M9.2,213.8h15.3v10h-1.9v-1.2H11v1.3H9.2V213.8z M11,215.5v5.3h11.6v-5.3H11z"/>
		<path class="st5" d="M59.5,221.5c0,0.9-0.2,1.4-0.8,1.8c-0.6,0.3-1.5,0.3-3,0.3c-0.1-0.4-0.3-1.2-0.5-1.7c1,0,1.9,0,2.2,0
			s0.4-0.1,0.4-0.5V215c-1,0.6-2,1.2-2.9,1.8l-0.7-1.4c-0.2,3-0.6,6.1-1.8,8.5c-0.3-0.3-1-0.7-1.4-0.8c1.6-3.4,1.7-8.1,1.7-11.6
			v-8.6h6.6v18.6H59.5z M54.5,211.3c0,1.1,0,2.4-0.1,3.7c1-0.4,2.2-1,3.5-1.6v-2.7l-0.9,0.7c-0.5-0.8-1.6-1.9-2.5-2.9V211.3z
			 M54.5,204.4v3.7l0.8-0.6c0.9,0.8,2,1.9,2.6,2.7v-5.8L54.5,204.4L54.5,204.4z M72.3,212.8c-0.9,3-2.4,5.3-4.4,7
			c1.5,1.1,3.3,1.9,5.3,2.4c-0.4,0.4-0.9,1.1-1.2,1.6c-2.1-0.6-3.9-1.6-5.5-2.8c-1.7,1.2-3.6,2.2-5.7,2.8c-0.2-0.5-0.6-1.2-1-1.5
			c1.9-0.5,3.7-1.3,5.4-2.4c-1.5-1.5-2.7-3.4-3.6-5.6l0.3-0.1h-1.2v-1.7h10.1l0.3-0.1L72.3,212.8z M64.7,205.4
			c0,2.1-0.6,4.7-3.6,6.4c-0.2-0.4-0.8-1-1.2-1.2c2.6-1.5,3-3.4,3-5.1v-2.6h7.3v5.6c0,0.6,0,0.9,0.4,0.9H72c0.3,0,0.7,0,1-0.1
			c0,0.5,0.1,1.1,0.1,1.5c-0.3,0.1-0.7,0.1-1.1,0.1h-1.5c-1.6,0-1.9-0.7-1.9-2.4v-3.9h-4L64.7,205.4L64.7,205.4z M63.3,214.1
			c0.8,1.8,1.9,3.3,3.3,4.7c1.4-1.3,2.6-2.8,3.4-4.7H63.3z"/>
		<path class="st5" d="M99.7,212.6c0-1.1,0.9-1.9,1.9-1.9s1.9,0.8,1.9,1.9c0,1.1-0.9,1.9-1.9,1.9S99.7,213.7,99.7,212.6z"/>
		<path class="st6" d="M136.4,202.5c-0.5,1.5-1.1,3-1.7,4.5v16.9h-2.1v-12.7c-0.6,1-1.2,1.8-1.8,2.6c-0.2-0.5-0.8-1.8-1.2-2.4
			c1.9-2.3,3.6-5.9,4.7-9.5L136.4,202.5z M149.9,218.1c-0.8,1.2-2.1,2.3-3.7,3.1c1.7,0.5,3.6,0.7,5.7,0.9c-0.4,0.4-0.9,1.2-1.1,1.7
			c-2.6-0.3-4.9-0.8-7-1.6c-2,0.7-4.4,1.2-7.1,1.6c-0.2-0.5-0.7-1.2-1.1-1.6c2.2-0.2,4.2-0.6,5.8-1c-0.7-0.4-1.4-0.8-2-1.2
			c-0.7,0.4-1.4,0.8-2.3,1.2c-0.3-0.4-0.8-1-1.3-1.3c0.8-0.3,1.6-0.7,2.2-1.1c-0.3-0.3-0.6-0.7-0.9-1l1.7-0.6
			c0.2,0.3,0.4,0.5,0.7,0.7c0.7-0.5,1.3-1,1.8-1.6c-0.6-0.2-0.8-0.7-0.8-1.6v-0.3c-0.6,0.8-1.3,1.8-2.3,2.4l-1.3-1
			c0.9-0.6,1.8-1.5,2.4-2.4l1.2,0.6v-0.6h1.8v1.3c0,0.5,0.1,0.5,0.9,0.5h2.6c0.5,0,0.6-0.1,0.7-0.9c0.3,0.2,0.9,0.4,1.4,0.5
			c-0.3-0.2-0.5-0.5-0.7-0.7l1.2-0.7c0.9,0.8,2.1,1.9,2.6,2.7l-1.2,0.8c-0.4-0.6-1.1-1.3-1.8-2.1c-0.1,1.3-0.6,1.7-1.9,1.7h-2.6
			c-0.2,0.3-0.5,0.6-0.8,0.9h5.5l0.4-0.1L149.9,218.1z M151.9,211.5v3.3h-2v-1.9h-5.7c0.6,0.5,1.4,1,1.8,1.4l-1.3,0.8
			c-0.4-0.5-1.3-1.2-2.1-1.7l0.8-0.5H138v2h-1.9v-3.3h2.3v-6h4.1c0.1-0.4,0.2-0.7,0.2-1.1h-5.9v-1.7h14.8v1.7H145l-0.4,1.1h5.3v6h2
			V211.5z M140.3,206.7v0.9h7.4v-0.9H140.3z M147.7,208.6h-7.4v0.9h7.4V208.6z M140.3,211.5h7.4v-0.9h-7.4V211.5z M140.9,219
			c0.8,0.6,1.8,1.1,2.9,1.5c1.2-0.5,2.3-1.1,3-1.7h-5.7L140.9,219z"/>
		<path class="st6" d="M190.8,202.2c1.1,3.6,3.6,7,6.8,8.8c-0.5,0.5-1.2,1.4-1.6,2c-0.8-0.5-1.5-1.1-2.2-1.7c0,0.1,0,0.3,0,0.4
			c-0.3,7.3-0.6,10.1-1.5,11c-0.5,0.7-1.1,0.9-2,1c-0.8,0.1-2.3,0.1-3.7,0c0-0.7-0.3-1.6-0.7-2.3c1.4,0.1,2.8,0.2,3.4,0.2
			c0.5,0,0.7-0.1,1-0.3c0.6-0.6,0.9-2.8,1.1-8.4h-5.5c-0.6,4.7-2.2,8.9-8.3,11.1c-0.3-0.6-0.9-1.5-1.4-2c5.5-1.8,6.8-5.3,7.3-9.1
			H179v-1.7c-0.6,0.7-1.3,1.3-2,1.9c-0.4-0.5-1.3-1.3-1.9-1.7c2.8-1.9,4.9-5.2,6.1-8.8l2.3,0.6c-1,2.9-2.4,5.4-4.1,7.5h13.8
			c-1.8-1.8-3.2-4.1-4.1-6.4h-4v-2.1H190.8z"/>
		<path class="st6" d="M228.5,216.1c-0.4-0.8-1.2-2.1-1.9-3.3v11h-2.1v-10.4c-0.8,2.4-1.8,4.7-3,6.2c-0.2-0.6-0.8-1.5-1.1-2.1
			c1.6-1.9,3.1-5.5,3.8-8.6H221v-2.1h3.4v-5h2.1v5h3.4v2.1h-3.4v1.1c0.9,1.1,2.8,3.6,3.2,4.3L228.5,216.1z M242.6,212h-3.3v11.8
			h-2.2V212h-3.8c0,3.6-0.4,8.6-2.6,11.8c-0.4-0.4-1.3-0.9-1.8-1.1c2.2-3.1,2.4-7.7,2.4-11v-7.2c3-0.6,6.3-1.4,8.2-2.4l1.9,1.8
			c-2.2,0.9-5.2,1.7-8,2.2v3.9h9.3L242.6,212L242.6,212z"/>
	</g>
</g>
</svg>
