<?xml version="1.0" ?><svg enable-background="new 0 0 40 40" id="Слой_1" version="1.1" viewBox="0 0 40 40" xml:space="preserve" xmlns="http://www.w3.org/2000/svg" xmlns:xlink="http://www.w3.org/1999/xlink">
<style>
.st0{fill:#fff}
</style>
<g><path class="st0" d="M37.9,28.6l-10-10c-0.4-0.4-1-0.4-1.4,0c-0.4,0.4-0.4,1,0,1.4l10,10c1.8,1.8,1.8,4.8,0,6.6c-0.9,0.9-2.1,1.4-3.3,1.4   s-2.4-0.5-3.3-1.4L17.4,24.2c3.5-1.5,6.1-4.5,7.2-8.2c0.4-1.4,0.5-2.8,0.4-4.2C24.6,5.6,19.4,0.4,13.2,0c-2.1-0.1-4.1,0.3-6,1.1   C7,1.3,6.8,1.5,6.7,1.9C6.6,2.2,6.7,2.5,7,2.7l7,7.1c1.2,1.2,1.2,3.1,0,4.3c-1.2,1.1-3.2,1.1-4.3,0l-7-7.1C2.4,6.8,2.1,6.7,1.8,6.8   C1.4,6.9,1.2,7.1,1,7.4C0.2,9.1-0.2,11-0.1,12.9C0,18.9,4.6,24.1,10.4,25c0.7,0.1,1.4,0.2,2.1,0.2c0.9,0,1.9-0.1,2.8-0.3L28.5,38   c1.3,1.3,2.9,2,4.7,2s3.5-0.7,4.7-2C40.5,35.4,40.5,31.2,37.9,28.6z M15.2,22.8c-1.4,0.4-3,0.5-4.5,0.2C5.8,22.2,2,17.9,1.9,12.9   c0-1.1,0.1-2.2,0.4-3.3l6,5.9c1,1,2.2,1.5,3.6,1.5c1.4,0,2.6-0.5,3.6-1.5c2-2,2-5.2,0-7.2L9.5,2.4C10.6,2.1,11.9,2,13.1,2   c5.2,0.3,9.6,4.6,9.9,9.9c0.1,1.2,0,2.4-0.4,3.5c-1,3.5-3.8,6.3-7.3,7.3C15.3,22.8,15.3,22.8,15.2,22.8z"/></g><g><path class="st0" d="M31.6,34.7c-1.7,0-3-1.3-3-3c0-1.7,1.3-3,3-3s3,1.3,3,3C34.6,33.3,33.3,34.7,31.6,34.7z M31.6,30.7c-0.6,0-1,0.4-1,1   c0,0.6,0.4,1,1,1s1-0.4,1-1C32.6,31.1,32.2,30.7,31.6,30.7z"/></g></svg>