<?xml version="1.0" ?><svg id="Layer_1" style="enable-background:new 0 0 750 750; width:25px;" version="1.1" viewBox="0 0 750 750" xml:space="preserve" xmlns="http://www.w3.org/2000/svg" xmlns:xlink="http://www.w3.org/1999/xlink"><style type="text/css">
	                    .st0{fill: #fff;}
                    </style><g><path class="st0" d="M642.7,245.4h-461c-6.9,0-12.5,5.6-12.5,12.5s5.6,12.5,12.5,12.5h461c6.9,0,12.5-5.6,12.5-12.5   S649.6,245.4,642.7,245.4z"/><path class="st0" d="M642.7,315.4h-461c-6.9,0-12.5,5.6-12.5,12.5s5.6,12.5,12.5,12.5h461c6.9,0,12.5-5.6,12.5-12.5   S649.6,315.4,642.7,315.4z"/><path class="st0" d="M642.7,385.4h-461c-6.9,0-12.5,5.6-12.5,12.5s5.6,12.5,12.5,12.5h461c6.9,0,12.5-5.6,12.5-12.5   S649.6,385.4,642.7,385.4z"/><path class="st0" d="M459.2,460.4H181.7c-6.9,0-12.5,5.6-12.5,12.5s5.6,12.5,12.5,12.5h277.5c6.9,0,12.5-5.6,12.5-12.5   S466.1,460.4,459.2,460.4z"/><path class="st0" d="M666.8,124.9v-0.3c0-46-37.4-83.5-83.5-83.5H92.2c-46,0-83.5,37.4-83.5,83.5v315.1c0,43,32.7,78.5,74.5,83v0.3   c0,46,37.4,83.5,83.5,83.5h347.2c4.8,0,9.3,1.9,12.6,5.2l89.9,89.9c4.8,4.8,11.2,7.4,17.7,7.4c3.2,0,6.5-0.6,9.6-1.9   c9.4-3.9,15.5-13,15.5-23.2v-77.4c45.4-0.8,82-37.9,82-83.5V207.9C741.2,164.9,708.6,129.4,666.8,124.9z M83.2,207.9v289.6   c-28-4.3-49.5-28.6-49.5-57.8V124.6c0-32.2,26.2-58.5,58.5-58.5h491.1c32.2,0,58.4,26.1,58.5,58.3H166.7   C120.7,124.4,83.2,161.8,83.2,207.9z M716.2,522.9c0,32.2-26.2,58.5-58.5,58.5c-13,0-23.5,10.6-23.5,23.5v78.8c0,0,0,0,0,0   c0,0-0.1,0-0.1,0c0,0,0,0,0,0L544.3,594c-8.1-8.1-18.9-12.6-30.3-12.6H166.7c-32.2,0-58.5-26.2-58.5-58.5V207.9   c0-32.2,26.2-58.5,58.5-58.5h491.1c32.2,0,58.5,26.2,58.5,58.5V522.9z"/></g></svg>