<?xml version="1.0" standalone="no"?><!DOCTYPE svg PUBLIC "-//W3C//DTD SVG 1.1//EN" "http://www.w3.org/Graphics/SVG/1.1/DTD/svg11.dtd"><svg class="icon" height="512" viewBox="0 0 1024 1024" version="1.1" xmlns="http://www.w3.org/2000/svg">
<style>
.st0{fill:#fff}
</style>
<path class="st0" d="M139.636364 43.482484 139.636364 44.327284C139.636364 68.379322 160.183436 87.809769 185.500393 87.809769L761.60526 87.809769C779.217036 87.809769 793.526598 101.376279 793.526598 118.123287L793.526598 905.429504C793.526598 922.176465 779.217036 935.742976 761.60526 935.742976L185.500393 935.742976C160.183436 935.742976 139.636364 955.223133 139.636364 979.22546L139.636364 980.517516C139.636364 1004.519843 160.183436 1024 185.500393 1024L815.960669 1024C853.752646 1024 884.363636 994.978537 884.363636 959.148963L884.363636 64.851037C884.363636 29.021463 853.752646 0 815.960669 0L185.500393 0C160.183436 0 139.636364 19.430447 139.636364 43.482484ZM377.628765 304.3941 377.628765 380.629178C377.628765 399.383133 363.460608 414.595305 345.993775 414.595305L173.542586 414.595305C154.831965 414.595305 139.636364 430.91065 139.636364 450.999994L139.636364 572.000628C139.636364 592.089972 154.831965 608.347276 173.542586 608.347276L345.993775 608.347276C363.460608 608.347276 377.628765 623.559447 377.628765 642.371444L377.628765 719.651607C377.628765 740.902214 400.719593 752.456471 415.915194 738.870039L640.280204 538.034502C655.421766 524.506159 655.421766 499.539596 640.280204 486.011206L415.915194 285.117626C400.719593 271.531194 377.628765 283.14354 377.628765 304.3941Z" /></svg>