<?xml version="1.0" encoding="utf-8"?>
<!-- Generator: Adobe Illustrator 21.0.0, SVG Export Plug-In . SVG Version: 6.00 Build 0)  -->
<svg version="1.1" id="Layer_1" xmlns="http://www.w3.org/2000/svg" xmlns:xlink="http://www.w3.org/1999/xlink" x="0px" y="0px"
	 viewBox="0 0 800 280" style="enable-background:new 0 0 800 280;" xml:space="preserve">
<style type="text/css">
	.st0{fill:#ffffff;}
	.st1{fill:#FFA500;}
</style>
<g>
	<path class="st0" d="M337,71.4c1.6,0,2.9,0.4,4,1.3c1.3,1.1,1.9,2.4,1.9,4.1c0,0.7-0.2,1.6-0.6,2.8c-2.6,13-6,24.4-10,34.2v89.1
		c0,3.6-1.7,5.4-5.1,5.4c-3.5,0-5.3-1.8-5.3-5.4V136c-1.2,2.1-2.4,4-3.7,5.9c-1.5,1.7-2.6,2.5-3.4,2.5c-3.9,0-5.9-1.6-5.9-4.7
		c0-1.4,0.4-2.6,1.2-3.7c4.8-7.8,9.1-16.5,12.8-26c4.1-10,7.5-21.6,10.1-34.9C333.5,72.7,334.8,71.4,337,71.4z M436.8,75.7
		c2.8,0,4.3,1.3,4.3,4c0,3.1-1.4,4.7-4.3,4.7h-41.5l-3.5,7h31c5.8,0,8.7,2.5,8.7,7.6v31.7h4.7c3.1,0,5.4,1.1,6.9,3.2
		c1.3,1.6,1.9,4,1.9,7.3c0,2.2-0.4,4.5-1.2,7c-0.6,2.4-2.1,3.7-4.6,3.7c-2.7,0-4.1-1.4-4.1-4.3c0.7-3.1,1-5.1,1-5.9
		c0-2.6-0.9-4-2.8-4H379c0.3,0.8,0.4,1.6,0.4,2.3v12.8c0,1.2,1.4,1.8,4.1,1.8h17.2c6.8,0,10.3-2.7,10.3-8.2c0.4-2.3,1.8-3.5,4.3-3.5
		c3,0,4.6,1.6,4.6,4.7c0,4.9-1.4,8.5-4.1,10.7c-3.3,2.7-7.5,4.1-12.6,4.1h-17c-1.1,2.4-2.3,4.6-3.8,6.5h42.3c4.7,0,7,2,7,5.9
		c0,2.2-2.4,5-7.3,8.7c-3.8,3-8.3,5.8-13.4,8.4c7.8,2.3,18.8,4.3,33,5.7c1.1,0,2.1,0.4,3.1,1.2c1.1,0.8,1.6,2,1.6,3.7
		s-0.5,3-1.6,4.1c-1,0.6-2.4,1-4.3,1.2c-7.7,0-16.4-1.4-26.1-4.1c-7-1.8-13-3.8-18.2-6.2c-8.8,3.4-19.1,6.2-31,8.2
		c-8.4,1.8-15.4,2.6-20.8,2.6c-3.5,0-5.3-2-5.3-5.9c0-2.8,1.6-4.5,4.7-4.8c8.9-0.4,15.6-0.8,20-1.3c7.9-1.2,15.1-2.7,21.4-4.5
		c-5.6-3.3-11.2-7.5-16.9-12.5l-0.3,0.1c-7,3.6-13.7,6.4-20.3,8.4c-1.4,0.4-2.5,0.6-3.4,0.6c-1.4,0-2.5-0.6-3.5-1.8
		c-0.8-1.1-1.2-2.2-1.2-3.5c0-2.6,1.2-4.3,3.5-4.8c6.6-1.6,12.9-3.8,19.1-6.8c3.5-1.9,6.6-4.1,9.1-6.6c1-1,1.8-2,2.5-2.9
		c-4.1-1-6.2-3.4-6.2-7.2v-14.5c0-1,0.2-1.8,0.6-2.3h-18.6c-2.4,0-3.7,1.1-3.7,3.4v7c0,2.8-1.4,4.3-4.1,4.3c-2.6,0-4-1.4-4-4.3v-9.9
		c0-5.2,2.5-7.8,7.5-7.8h4.6V99c0-5.1,2.7-7.6,8.2-7.6H380l3.4-7h-34.3c-2.6,0-4-1.6-4-4.7c0-2.6,1.3-4,4-4
		C349.1,75.7,436.8,75.7,436.8,75.7z M361.1,143.8c3.6,0,5.4,1.5,5.4,4.6c0,1.9-0.8,3.8-2.3,5.9c-2.3,4.2-4.5,7.6-6.5,10.1
		c-1.3,0.7-2.4,1-3.5,1c-3.2,0-4.8-1.4-4.8-4.1c0-1.2,0.4-2.3,1.2-3.4c2.7-3.6,5.1-7.5,7.2-11.7
		C358.5,144.6,359.6,143.8,361.1,143.8z M362.2,105.5h59.3v-1.8c0-2.6-1.2-4-3.7-4h-52.6c-2.1,0-3.1,1.3-3.1,4v1.8H362.2z
		 M362.2,118.6h59.3v-5.9h-59.3V118.6z M362.2,130.7h59.3v-5.1h-59.3V130.7z M382.6,177.9c5.7,3.9,11.4,7.2,17,9.8
		c3.6-1.5,7-3,10.3-4.7c4.3-2.2,6.5-3.5,6.5-4.1c0-0.7-0.6-1-1.8-1H382.6z M394,139.1c0.7,0,1.5,0.4,2.5,1.2
		c1.8,1.8,3.5,3.9,5.3,6.3c0.4,0.9,0.6,1.7,0.6,2.3c0,2.4-1.4,3.7-4.1,3.7c-0.6,0-1.2-0.2-1.8-0.6c-2-2.3-3.9-4.5-5.9-6.5
		c-0.8-1.2-1.2-2-1.2-2.5C389.4,140.4,390.9,139.1,394,139.1z M427,143.1c1,0,1.9,0.6,2.8,1.9c3.1,3.8,5.7,8.1,7.6,12.9
		c0.4,1.2,0.6,2.3,0.6,3.4c0,2.7-2,4.1-5.9,4.1c-1.6,0-2.7-1.2-3.4-3.5c-1.8-5.4-3.6-9.7-5.4-12.9c-0.3-1-0.4-1.8-0.4-2.3
		C422.9,144.3,424.2,143.1,427,143.1z"/>
	<path class="st0" d="M517.6,87.4c1.3,0,2.4,0.4,3.5,1.2c1.2,0.8,1.8,1.9,1.8,3.4c0,1-0.2,2.2-0.6,3.7c-2.3,8-5.1,14.8-8.4,20.4
		c-3.2,6.3-7.1,11.9-11.6,17c-3.6,4.5-8,8.5-13.1,11.9c-1.1,0.8-2.2,1.2-3.4,1.2c-1.5,0-2.7-0.6-3.8-1.8c-1-1.3-1.5-2.6-1.5-4.1
		c0-1.7,0.5-3.1,1.6-4.3c4.6-3.2,8.6-6.8,11.9-10.7c4.1-4.9,7.7-10.1,10.7-15.6c2.8-5.3,5.3-11.6,7.5-18.9
		C513,88.6,514.8,87.4,517.6,87.4z M515.1,127.8h70.6c6.9,0,10.4,4.2,10.4,12.5c0,14.9-0.6,28.5-1.9,40.8c-1.3,10.9-3.9,18-7.9,21.4
		c-4.3,3.5-10.6,5.3-18.8,5.3c-7.1,0-15-1.8-23.6-5.3c-2.7-1.4-4.1-3.2-4.1-5.4c0-4.3,2-6.5,5.9-6.5c9.2,4,16.3,6,21.3,6
		c5.6,0,9.5-1.5,11.9-4.4c2.4-2.8,4.1-8.2,4.8-16.2c1-8.8,1.5-19.4,1.5-31.7c0-3.9-1.8-5.9-5.3-5.9h-31.1c-1.5,11.7-3.8,21.7-7,29.8
		c-4,9.8-9.9,17.6-17.6,23.5c-7.5,6-18.1,11-31.7,15.1l-1.8,0.3c-3.9,0-5.9-2.2-5.9-6.5c0-2.3,1.1-3.8,3.4-4.7
		c12.4-3.4,22.3-8,29.5-13.7c5.7-4.6,10.2-10.8,13.7-18.6c2.8-6.2,4.8-14.6,6-25.3h-22.2c-3.4,0-5.1-1.8-5.1-5.3
		C510,129.6,511.7,127.8,515.1,127.8z M531.6,75.1h40.7c5.9,0,10,2.9,12.3,8.8c3.3,10.6,7.2,19.2,11.6,25.8
		c2.9,4.6,6.6,9.2,10.9,13.8c2.5,2.6,6.4,6.1,11.6,10.3c1.1,1.4,1.6,2.9,1.6,4.7c-0.2,3.3-2.2,5.1-5.9,5.3c-1.3,0-2.6-0.6-4-1.9
		c-5.6-4.1-10-8-13.2-11.6c-4.9-5.1-9.4-11-13.5-17.6c-3.9-6.8-7.1-14.7-9.7-23.5c-0.7-2.4-2.3-3.7-4.8-3.7h-37.6
		c-3.5,0-5.3-1.8-5.3-5.3C526.3,76.8,528.1,75.1,531.6,75.1z"/>
	<path class="st0" d="M706.1,99.8c3.1,0,4.7,1.5,4.7,4.6c0,3.6-1.6,5.4-4.7,5.4H691v11.3l17.8,27c1.1,1.8,1.6,3.3,1.6,4.7
		c0,3.9-2,5.9-5.9,5.9c-2,0-3.4-1.1-4.4-3.2l-9.1-17.3v65c0,3.6-1.8,5.4-5.3,5.4c-3.6,0-5.4-1.8-5.4-5.4v-67.7
		c0,0.1-0.1,0.2-0.1,0.4c-3.1,9.5-6,16.9-8.5,22.3c-3.1,7.5-5.9,12.9-8.4,16.2c-1.2,2.4-2.7,3.7-4.6,3.7c-3.5,0-5.3-1.8-5.3-5.4
		c0-1.3,0.3-2.6,1-4.1c8.1-14.3,13.8-26.1,17.2-35.5c2.5-6.7,4.8-14.4,6.9-23.2h-17c-3.1,0-4.7-1.8-4.7-5.4c0-3.1,1.6-4.6,4.7-4.6
		h18.8v-22c0-3.5,1.8-5.3,5.4-5.3c3.5,0,5.3,1.8,5.3,5.3v21.9H706.1z M780.1,73.2c3,0.2,4.6,2.2,4.8,5.9c-0.3,2.7-2.3,4.5-5.9,5.3
		c-21.2,3.9-36.9,5.9-47.1,5.9c-2.6,0-4,1.6-4,4.8v22.2h58.6c3.6,0,5.4,1.8,5.4,5.3s-1.8,5.3-5.4,5.3h-16.4v74.6
		c0,3.5-1.9,5.3-5.7,5.3c-3.5,0-5.3-1.8-5.3-5.3v-74.7H728v10.1c0,12.2-0.9,22.9-2.8,32c-2,11.3-5.5,22.7-10.7,34.2
		c-1.4,2.1-3.1,3.1-5.3,3.1c-3.7-0.3-5.7-2.3-5.9-5.9c0-0.8,0.4-1.8,1.2-3.1c5.4-11.8,8.9-22.3,10.6-31.4c1.5-8.7,2.2-18.4,2.2-28.9
		V88c0-5.6,3.4-8.4,10.1-8.4c12.7,0,28.2-1.8,46.5-5.4C777.3,73.5,779.4,73.2,780.1,73.2z"/>
	<g>
		<path class="st1" d="M168.2,143.4c0,3.6-2.8,5.8-5.8,5.8l-20,0c0,0-12.5,29.7-15.4,36.3c-1.5,3.4-5.1,4.5-8.2,3
			c-2.8-1.3-3.7-4.8-2.4-7.9c9.7-22.9,20-47.3,29.7-70.2c1.2-2.9,3.4-7.4,4.4-10.5c1.1-3,3.4-5.6,7.3-5.6c4.2,0,6.2,2.1,7.8,5.8
			c6.6,15.9,13.4,32.8,20.1,48.7c7.3,17.2,15.5,35.7,22.8,53c3.9-5.3,7.7-11.8,8.6-13.5c4.9-9.4,7.8-18.7,9.3-26.9
			c2.9-16,2.7-32-1.7-48.5c-4.2-16.1-13.9-33.2-25.9-45.4c-8.4-8.6-18-15.7-28.5-21c-9.9-5-20.5-8-31.7-9.7
			c-15.2-2.3-32-0.7-45.8,3.6c-7,2.2-16.6,6.6-19.9,8.7c-3.5,2.2-7.6,1.4-9.1-1.9c-1.5-3.2-0.2-6.3,2.7-7.9c9.6-5.3,20-9.6,31-12.2
			c12.7-3,26-3.7,38.6-2.4c16.2,1.7,32.5,7.4,45.6,14.8c11.3,6.3,23.2,16.3,32.2,27.4c5.8,7.2,10.4,14.4,14.9,23.6
			c4.3,8.9,8,19.8,9.4,29.7c2.8,16.3,2,34.2-1.6,49c-2.7,11-6.7,20.7-12.8,30.5c-5.6,9.2-14,18.6-15.7,19.6c-2.6,1.5-4.3,0-5.4-1.6
			c-1.2-1.7-33.2-78.6-33.2-78.6L158,112.2c0,0-8.5,20.3-10.7,25.3l15.1,0C165.3,137.7,168.2,139.6,168.2,143.4z"/>
		<path class="st0" d="M45.7,71.3c-13.4,15.4-22,34.2-24.8,52.9c-4.5,29.9,4.2,58.9,21.4,80.6c6.8,8.6,15.1,16.4,24.9,22.7
			c10.9,7,24.4,12.7,37.2,15c18.2,3.2,35.7,2.1,52.1-3.4c9.5-3.2,18.9-7.6,27.9-14.1c1.5-1.1,3.7-3,5.5-4.2c2.4-1.6,6-0.7,7.8,1.7
			c1.1,1.5,1.6,4.6-0.1,6.6c-1.2,1.5-3,2.6-4.6,3.7c-8.3,6.3-18.5,11.9-28.8,15.7c-14.4,5.4-29.7,7.6-45.5,7.1
			c-17-0.5-35-6-47.8-12.6c-19.7-10.2-33-24.1-40.3-34c-6-8.1-12.3-19.3-16.2-30.6c-5.1-14.9-7.1-30.2-6.4-45.1
			c0.5-10.5,2.7-20.6,5.9-30.4C18,91,24.1,80.1,31.6,70c4.4-6,11-12.7,18.9-19.6c0.4-0.4,1.5-1.3,2.7-2.3c1.7-1.4,4.2-0.2,4.2,1.9
			c0,1.4,0,2.6,0,3.3c0.1,28.1,0,56.1,0,84.2c0,7,0.9,10.4,3.5,15.4c3.4,6.5,9.5,11.6,16.6,13.8c9.5,2.9,19.1,1.1,26.3-4.2
			c6.9-5.1,11.6-13.1,11.8-22.7c0-13.4,0-32.8,0-46.5c0-4.7,3.8-6,6-6c2.5,0,5.7,2,5.7,6c0,7.9,0.1,34.1,0,46.3
			c0,8.8-3.2,17-8.1,23.6c-6.3,8.7-16.1,14.6-27,16.1c-19.5,2.7-38.9-9-44.5-27.6c-1.5-4.9-2-10.2-2-15.3
			C45.8,115.9,45.7,93.8,45.7,71.3z"/>
	</g>
</g>
</svg>
