<?xml version="1.0" encoding="utf-8"?>
<!-- Generator: Adobe Illustrator 21.0.0, SVG Export Plug-In . SVG Version: 6.00 Build 0)  -->
<svg version="1.1" id="Layer_1" xmlns="http://www.w3.org/2000/svg" xmlns:xlink="http://www.w3.org/1999/xlink" x="0px" y="0px"
	 viewBox="0 0 800 160" style="enable-background:new 0 0 800 160;" xml:space="preserve">
<style type="text/css">
	.st0{fill:#FFFFFF;}
</style>
<g>
	<g>
		<g>
			<rect x="86.7" y="5" class="st0" width="26" height="150"/>
			<rect x="138.8" y="5" class="st0" width="26.1" height="150"/>
			<rect x="10" y="18.4" class="st0" width="26" height="122.3"/>
			<rect x="215.6" y="18.4" class="st0" width="26" height="126.6"/>
			<rect x="48.3" y="121.3" class="st0" width="26" height="33.7"/>
			<rect x="177.2" y="5" class="st0" width="26" height="33.7"/>
			<rect x="177.2" y="89.2" class="st0" width="26" height="16.2"/>
		</g>
	</g>
	<g>
		<path class="st0" d="M343.8,16.5c-2.9,9.5-6.4,19-10.4,28.1v101.9H323V65.2c-3.9,7-8.2,13.5-12.6,18.9c-1-2.5-3.9-8.3-5.7-11
			c11.8-14.6,22.7-37,29.1-59.4L343.8,16.5z M426.2,111.5c-5.3,7.7-13.6,14.5-24.4,19.9c11.3,3.2,24,5.4,37.1,6.6
			c-1.9,2.2-4.4,5.8-5.7,8.6c-15.6-1.9-30.6-5.3-43.6-10.1c-12.6,4.5-27.6,7.9-44.7,10.2c-1.2-2.5-3.5-6-5.6-8.2
			c14.5-1.6,27.3-4.1,38.2-7.2c-5.4-2.8-10.4-5.8-14.8-9.4c-4.5,2.9-9.6,5.6-15.1,8.2c-1.5-2.2-4.2-5.1-6.4-6.4
			c5.4-2.3,10.5-4.8,14.9-7.5c-2-2-3.8-4.2-5.6-6.4l8.5-3.2c1.2,1.8,2.8,3.4,4.4,5c4.8-3.5,9.1-7,12.3-10.7c-4.2-1-5.6-3.5-5.6-9.1
			v-8.5h9.1v8.5c0,2.8,0.9,3.2,5.7,3.2H403c3.4,0,4.1-0.7,4.5-6.4c1.8,1.2,5.1,2,7.5,2.5c-0.9,8.3-3.4,10.5-11,10.5h-17.5
			c-1.8,2.2-3.7,4.2-5.8,6.3h36.8l1.9-0.4L426.2,111.5z M439.7,71.9v19.6h-9.8V78.9h-40.2c4.7,2.6,10.1,6.4,13,9.4l-6.1,4.4
			c-3.2-3.1-9.2-7.7-14.2-10.5l4.8-3.2h-34.8v12.6h-9.5V71.9h14.3V35.3h25.4c0.7-2.5,1.3-5.1,1.9-7.6h-37.9v-8.3h90.7v8.3H396
			c-1,2.6-2,5.3-3.1,7.6h33.2v36.6C426.1,71.9,439.7,71.9,439.7,71.9z M369.7,87.1c-3.7,5.6-8.9,12.1-15.4,16.2l-6.4-5.1
			c6-3.4,11.7-9.7,14.9-14.8L369.7,87.1z M367.2,41.6v6.3h48.7v-6.3H367.2z M415.9,53.6h-48.7v6.3h48.7V53.6z M367.2,71.9h48.7v-6.3
			h-48.7V71.9z M370.2,117.1c5.4,3.9,12,7.5,19.4,10.2c8.8-3.4,15.8-7.6,20.9-12h-38.3L370.2,117.1z M428.3,103.9
			c-3.2-5-10.4-12.1-16.5-17.3l6.1-3.7c6.1,4.8,13.3,11.8,16.8,16.5L428.3,103.9z"/>
		<path class="st0" d="M529.9,20.6c-8.2,24.9-22.7,45.6-39.8,59.4c-1.9-2.2-6.4-6.3-9.1-8c17.3-12,30.6-31.3,37.6-54.1L529.9,20.6z
			 M593.6,67.8c0,0-0.1,3.8-0.3,5.3c-2,44.9-4.1,61.7-9.1,67.3c-3.1,3.7-6.1,4.7-11.4,5.3c-4.7,0.4-13.9,0.1-23-0.3
			c-0.1-3.4-1.5-7.7-3.5-11c9.5,0.9,18.4,1,21.9,1c3.1,0,4.7-0.3,6.1-1.9c3.8-3.7,5.8-18.3,7.6-55.1h-37.7
			c-3.8,28.9-13.3,55.3-50.4,68.9c-1.3-2.9-4.4-7.2-7-9.5c34.5-11.6,42.5-34.5,45.9-59.4H503V67.8H593.6z M575.1,15.4
			c7.3,23,23,43.9,41.5,54.4c-2.3,2.3-5.8,6.7-7.7,9.8c-18.1-11.7-33.2-32.2-41.5-54h-25.9V15.4H575.1z"/>
		<path class="st0" d="M705.5,97.5c-2.5-5.1-8.2-14.3-13.2-22.1v70.9h-10.5v-69c-5.4,16.4-12.6,32.2-20,42c-1.2-2.9-3.9-7.2-5.7-9.8
			c9.6-12.1,19.7-34.9,24.6-55H660V44.1h21.8V12.8h10.5v31.3h21.3v10.4h-21.3V62c5.1,6.1,17.3,22.5,20.2,26.9L705.5,97.5z M790,72.9
			h-21.2v73.5h-10.7V72.9h-26.6v0.7c0,21.8-2,52.3-15.8,72.5c-1.9-1.8-6.4-4.7-8.9-5.6c13.2-19.4,14.5-46.6,14.5-67V28.9
			c18.4-3.4,39.3-8.9,51.2-14.3l9.2,8.5c-13.6,5.6-32.6,10.2-50.1,13.5v26H790V72.9z"/>
	</g>
</g>
</svg>
