<?xml version="1.0" ?><svg height="32px" style="enable-background:new 0 0 32 32;" version="1.1" viewBox="0 0 32 32" width="32px" xml:space="preserve" xmlns="http://www.w3.org/2000/svg" xmlns:xlink="http://www.w3.org/1999/xlink"><style type="text/css">
	.st0{fill:none;stroke:#fff;stroke-width:2;stroke-linecap:round;stroke-linejoin:round;stroke-miterlimit:10;}
	.st1{fill:#fff;}
</style><g id="Layer_2"/><g id="Layer_1"><g><g><circle class="st0" cx="29" cy="7" r="2"/><path class="st0" d="M1,15c0-1.09998,0.90002-2,2-2c0.65002,0,1.22998,0.32001,1.59998,0.79999C4.84998,14.14001,5,14.54999,5,15     c0,1.10004-0.90002,2-2,2S1,16.10004,1,15z"/><path class="st0" d="M18,14c0-0.39001,0.10999-0.75,0.29999-1.06C18.65997,12.38,19.28998,12,20,12     c0.59998,0,1.14001,0.27002,1.5,0.69C21.82001,13.04004,22,13.5,22,14c0,1.10004-0.90002,2-2,2S18,15.10004,18,14z"/><line class="st0" x1="21.5" x2="27.5" y1="12.69" y2="8.31"/><path class="st0" d="M10,9c0-1.09998,0.90002-2,2-2s2,0.90002,2,2c0,0.39001-0.10999,0.75-0.29999,1.06     C13.34003,10.62,12.71002,11,12,11c-0.65002,0-1.22998-0.32001-1.59998-0.79999C10.15002,9.85999,10,9.45001,10,9z"/><line class="st0" x1="4.6" x2="10.4" y1="13.8" y2="10.2"/><line class="st0" x1="13.7" x2="18.3" y1="10.06" y2="12.94"/></g><g><polyline class="st0" points="30,12 30,27 25,27 25,14    "/><polyline class="st0" points="8,15 8,27 3,27 3,20    "/><polyline class="st0" points="19,19 19,27 14,27 14,15    "/></g></g></g></svg>